<mxfile host="app.diagrams.net" agent="Mozilla/5.0 (Windows NT 10.0; Win64; x64) AppleWebKit/537.36 (KHTML, like Gecko) Chrome/134.0.0.0 Safari/537.36" version="26.1.3">
  <diagram id="hSurJBUjhXhQh9Uf715d" name="Страница — 1">
    <mxGraphModel dx="1961" dy="1758" grid="1" gridSize="10" guides="1" tooltips="1" connect="1" arrows="1" fold="1" page="1" pageScale="1" pageWidth="827" pageHeight="1169" math="0" shadow="0">
      <root>
        <mxCell id="0" />
        <mxCell id="1" parent="0" />
        <mxCell id="invz6qDNmd_Pc3l4Sm9H-8" style="rounded=0;orthogonalLoop=1;jettySize=auto;html=1;exitX=0.5;exitY=0.5;exitDx=0;exitDy=0;exitPerimeter=0;entryX=0;entryY=0.5;entryDx=0;entryDy=0;" edge="1" parent="1" source="invz6qDNmd_Pc3l4Sm9H-1" target="invz6qDNmd_Pc3l4Sm9H-5">
          <mxGeometry relative="1" as="geometry" />
        </mxCell>
        <mxCell id="invz6qDNmd_Pc3l4Sm9H-9" style="rounded=0;orthogonalLoop=1;jettySize=auto;html=1;exitX=0.5;exitY=0.5;exitDx=0;exitDy=0;exitPerimeter=0;" edge="1" parent="1" source="invz6qDNmd_Pc3l4Sm9H-1" target="invz6qDNmd_Pc3l4Sm9H-6">
          <mxGeometry relative="1" as="geometry" />
        </mxCell>
        <mxCell id="invz6qDNmd_Pc3l4Sm9H-10" style="rounded=0;orthogonalLoop=1;jettySize=auto;html=1;exitX=0.5;exitY=0.5;exitDx=0;exitDy=0;exitPerimeter=0;entryX=0;entryY=0.5;entryDx=0;entryDy=0;" edge="1" parent="1" source="invz6qDNmd_Pc3l4Sm9H-1" target="invz6qDNmd_Pc3l4Sm9H-7">
          <mxGeometry relative="1" as="geometry" />
        </mxCell>
        <mxCell id="invz6qDNmd_Pc3l4Sm9H-1" value="Пользователь" style="shape=umlActor;verticalLabelPosition=bottom;verticalAlign=top;html=1;outlineConnect=0;" vertex="1" parent="1">
          <mxGeometry x="340" y="550" width="30" height="60" as="geometry" />
        </mxCell>
        <mxCell id="invz6qDNmd_Pc3l4Sm9H-15" style="rounded=0;orthogonalLoop=1;jettySize=auto;html=1;exitX=0.5;exitY=0.5;exitDx=0;exitDy=0;exitPerimeter=0;entryX=1;entryY=0.5;entryDx=0;entryDy=0;" edge="1" parent="1" source="invz6qDNmd_Pc3l4Sm9H-2" target="invz6qDNmd_Pc3l4Sm9H-12">
          <mxGeometry relative="1" as="geometry" />
        </mxCell>
        <mxCell id="invz6qDNmd_Pc3l4Sm9H-16" style="rounded=0;orthogonalLoop=1;jettySize=auto;html=1;exitX=0.5;exitY=0.5;exitDx=0;exitDy=0;exitPerimeter=0;entryX=1;entryY=0.5;entryDx=0;entryDy=0;" edge="1" parent="1" source="invz6qDNmd_Pc3l4Sm9H-2" target="invz6qDNmd_Pc3l4Sm9H-13">
          <mxGeometry relative="1" as="geometry" />
        </mxCell>
        <mxCell id="invz6qDNmd_Pc3l4Sm9H-2" value="Автор" style="shape=umlActor;verticalLabelPosition=bottom;verticalAlign=top;html=1;outlineConnect=0;" vertex="1" parent="1">
          <mxGeometry x="727" y="30" width="30" height="60" as="geometry" />
        </mxCell>
        <mxCell id="invz6qDNmd_Pc3l4Sm9H-20" style="rounded=0;orthogonalLoop=1;jettySize=auto;html=1;exitX=0.5;exitY=0.5;exitDx=0;exitDy=0;exitPerimeter=0;entryX=0;entryY=0.5;entryDx=0;entryDy=0;" edge="1" parent="1" source="invz6qDNmd_Pc3l4Sm9H-3" target="invz6qDNmd_Pc3l4Sm9H-17">
          <mxGeometry relative="1" as="geometry" />
        </mxCell>
        <mxCell id="invz6qDNmd_Pc3l4Sm9H-21" style="rounded=0;orthogonalLoop=1;jettySize=auto;html=1;exitX=0.5;exitY=0.5;exitDx=0;exitDy=0;exitPerimeter=0;entryX=0;entryY=0.5;entryDx=0;entryDy=0;" edge="1" parent="1" source="invz6qDNmd_Pc3l4Sm9H-3" target="invz6qDNmd_Pc3l4Sm9H-18">
          <mxGeometry relative="1" as="geometry" />
        </mxCell>
        <mxCell id="invz6qDNmd_Pc3l4Sm9H-22" style="rounded=0;orthogonalLoop=1;jettySize=auto;html=1;exitX=0.5;exitY=0.5;exitDx=0;exitDy=0;exitPerimeter=0;entryX=0;entryY=0.5;entryDx=0;entryDy=0;" edge="1" parent="1" source="invz6qDNmd_Pc3l4Sm9H-3" target="invz6qDNmd_Pc3l4Sm9H-19">
          <mxGeometry relative="1" as="geometry" />
        </mxCell>
        <mxCell id="invz6qDNmd_Pc3l4Sm9H-3" value="Администратор" style="shape=umlActor;verticalLabelPosition=bottom;verticalAlign=top;html=1;outlineConnect=0;" vertex="1" parent="1">
          <mxGeometry x="20" y="150" width="30" height="60" as="geometry" />
        </mxCell>
        <mxCell id="invz6qDNmd_Pc3l4Sm9H-4" value="Система аналитики" style="shape=umlActor;verticalLabelPosition=bottom;verticalAlign=top;html=1;outlineConnect=0;" vertex="1" parent="1">
          <mxGeometry x="860.5" y="370" width="30" height="60" as="geometry" />
        </mxCell>
        <mxCell id="invz6qDNmd_Pc3l4Sm9H-5" value="Поиск публикаций" style="ellipse;whiteSpace=wrap;html=1;" vertex="1" parent="1">
          <mxGeometry x="460" y="450" width="120" height="80" as="geometry" />
        </mxCell>
        <mxCell id="invz6qDNmd_Pc3l4Sm9H-6" value="Чтение публикаций" style="ellipse;whiteSpace=wrap;html=1;" vertex="1" parent="1">
          <mxGeometry x="460" y="540" width="120" height="80" as="geometry" />
        </mxCell>
        <mxCell id="invz6qDNmd_Pc3l4Sm9H-7" value="Скачивание публикаций" style="ellipse;whiteSpace=wrap;html=1;" vertex="1" parent="1">
          <mxGeometry x="460" y="630" width="120" height="80" as="geometry" />
        </mxCell>
        <mxCell id="invz6qDNmd_Pc3l4Sm9H-11" value="Загрузка публикаций" style="ellipse;whiteSpace=wrap;html=1;" vertex="1" parent="1">
          <mxGeometry x="471" y="-170" width="120" height="80" as="geometry" />
        </mxCell>
        <mxCell id="invz6qDNmd_Pc3l4Sm9H-12" value="Управление публикациями" style="ellipse;whiteSpace=wrap;html=1;" vertex="1" parent="1">
          <mxGeometry x="547" y="-50" width="120" height="80" as="geometry" />
        </mxCell>
        <mxCell id="invz6qDNmd_Pc3l4Sm9H-13" value="Просмотр статистики" style="ellipse;whiteSpace=wrap;html=1;" vertex="1" parent="1">
          <mxGeometry x="557" y="50" width="120" height="80" as="geometry" />
        </mxCell>
        <mxCell id="invz6qDNmd_Pc3l4Sm9H-17" value="Управление пользователями" style="ellipse;whiteSpace=wrap;html=1;" vertex="1" parent="1">
          <mxGeometry x="150" y="50" width="120" height="80" as="geometry" />
        </mxCell>
        <mxCell id="invz6qDNmd_Pc3l4Sm9H-18" value="Модерация публикаций" style="ellipse;whiteSpace=wrap;html=1;" vertex="1" parent="1">
          <mxGeometry x="150" y="140" width="120" height="80" as="geometry" />
        </mxCell>
        <mxCell id="invz6qDNmd_Pc3l4Sm9H-19" value="Генерация отчетов" style="ellipse;whiteSpace=wrap;html=1;" vertex="1" parent="1">
          <mxGeometry x="150" y="230" width="120" height="80" as="geometry" />
        </mxCell>
        <mxCell id="invz6qDNmd_Pc3l4Sm9H-23" value="Фильтрация результатов" style="ellipse;whiteSpace=wrap;html=1;" vertex="1" parent="1">
          <mxGeometry x="460" y="320" width="120" height="80" as="geometry" />
        </mxCell>
        <mxCell id="invz6qDNmd_Pc3l4Sm9H-26" value="&amp;lt;&amp;lt;include&amp;gt;&amp;gt;" style="html=1;verticalAlign=bottom;labelBackgroundColor=none;endArrow=open;endFill=0;dashed=1;rounded=0;entryX=0.5;entryY=1;entryDx=0;entryDy=0;exitX=0.5;exitY=0;exitDx=0;exitDy=0;" edge="1" parent="1" source="invz6qDNmd_Pc3l4Sm9H-5" target="invz6qDNmd_Pc3l4Sm9H-23">
          <mxGeometry width="160" relative="1" as="geometry">
            <mxPoint x="470" y="430" as="sourcePoint" />
            <mxPoint x="630" y="430" as="targetPoint" />
          </mxGeometry>
        </mxCell>
        <mxCell id="invz6qDNmd_Pc3l4Sm9H-28" value="&amp;lt;&amp;lt;include&amp;gt;&amp;gt;" style="html=1;verticalAlign=bottom;labelBackgroundColor=none;endArrow=open;endFill=0;dashed=1;rounded=0;exitX=1;exitY=1;exitDx=0;exitDy=0;entryX=0;entryY=0.5;entryDx=0;entryDy=0;" edge="1" parent="1" source="invz6qDNmd_Pc3l4Sm9H-19" target="invz6qDNmd_Pc3l4Sm9H-55">
          <mxGeometry width="160" relative="1" as="geometry">
            <mxPoint x="240" y="240" as="sourcePoint" />
            <mxPoint x="299" y="320" as="targetPoint" />
          </mxGeometry>
        </mxCell>
        <mxCell id="invz6qDNmd_Pc3l4Sm9H-30" value="&amp;lt;&amp;lt;include&amp;gt;&amp;gt;" style="html=1;verticalAlign=bottom;labelBackgroundColor=none;endArrow=open;endFill=0;dashed=1;rounded=0;entryX=0.628;entryY=1.004;entryDx=0;entryDy=0;entryPerimeter=0;" edge="1" parent="1" source="invz6qDNmd_Pc3l4Sm9H-12" target="invz6qDNmd_Pc3l4Sm9H-11">
          <mxGeometry width="160" relative="1" as="geometry">
            <mxPoint x="407" as="sourcePoint" />
            <mxPoint x="567" as="targetPoint" />
          </mxGeometry>
        </mxCell>
        <mxCell id="invz6qDNmd_Pc3l4Sm9H-31" value="Отзыв публикации" style="ellipse;whiteSpace=wrap;html=1;" vertex="1" parent="1">
          <mxGeometry x="607" y="-180" width="120" height="80" as="geometry" />
        </mxCell>
        <mxCell id="invz6qDNmd_Pc3l4Sm9H-32" value="&amp;lt;&amp;lt;include&amp;gt;&amp;gt;" style="html=1;verticalAlign=bottom;labelBackgroundColor=none;endArrow=open;endFill=0;dashed=1;rounded=0;entryX=0;entryY=1;entryDx=0;entryDy=0;exitX=0.5;exitY=0;exitDx=0;exitDy=0;" edge="1" parent="1" source="invz6qDNmd_Pc3l4Sm9H-12" target="invz6qDNmd_Pc3l4Sm9H-31">
          <mxGeometry width="160" relative="1" as="geometry">
            <mxPoint x="517" y="-30" as="sourcePoint" />
            <mxPoint x="677" y="-30" as="targetPoint" />
          </mxGeometry>
        </mxCell>
        <mxCell id="invz6qDNmd_Pc3l4Sm9H-34" value="&amp;lt;&amp;lt;include&amp;gt;&amp;gt;" style="html=1;verticalAlign=bottom;labelBackgroundColor=none;endArrow=open;endFill=0;dashed=1;rounded=0;entryX=0;entryY=0.5;entryDx=0;entryDy=0;exitX=1;exitY=0;exitDx=0;exitDy=0;" edge="1" parent="1" source="invz6qDNmd_Pc3l4Sm9H-12" target="invz6qDNmd_Pc3l4Sm9H-35">
          <mxGeometry width="160" relative="1" as="geometry">
            <mxPoint x="517" y="-30" as="sourcePoint" />
            <mxPoint x="677" y="-30" as="targetPoint" />
          </mxGeometry>
        </mxCell>
        <mxCell id="invz6qDNmd_Pc3l4Sm9H-35" value="Редактирование публикации" style="ellipse;whiteSpace=wrap;html=1;" vertex="1" parent="1">
          <mxGeometry x="707" y="-110" width="120" height="80" as="geometry" />
        </mxCell>
        <mxCell id="invz6qDNmd_Pc3l4Sm9H-36" value="Анализ просматриваемости" style="ellipse;whiteSpace=wrap;html=1;" vertex="1" parent="1">
          <mxGeometry x="487" y="160" width="120" height="80" as="geometry" />
        </mxCell>
        <mxCell id="invz6qDNmd_Pc3l4Sm9H-37" value="Анализ цитирования" style="ellipse;whiteSpace=wrap;html=1;" vertex="1" parent="1">
          <mxGeometry x="637" y="160" width="120" height="80" as="geometry" />
        </mxCell>
        <mxCell id="invz6qDNmd_Pc3l4Sm9H-38" value="&amp;lt;&amp;lt;include&amp;gt;&amp;gt;" style="html=1;verticalAlign=bottom;labelBackgroundColor=none;endArrow=open;endFill=0;dashed=1;rounded=0;entryX=0.5;entryY=0;entryDx=0;entryDy=0;exitX=0.5;exitY=1;exitDx=0;exitDy=0;" edge="1" parent="1" source="invz6qDNmd_Pc3l4Sm9H-13" target="invz6qDNmd_Pc3l4Sm9H-36">
          <mxGeometry width="160" relative="1" as="geometry">
            <mxPoint x="517" y="120" as="sourcePoint" />
            <mxPoint x="677" y="120" as="targetPoint" />
          </mxGeometry>
        </mxCell>
        <mxCell id="invz6qDNmd_Pc3l4Sm9H-39" value="&amp;lt;&amp;lt;include&amp;gt;&amp;gt;" style="html=1;verticalAlign=bottom;labelBackgroundColor=none;endArrow=open;endFill=0;dashed=1;rounded=0;exitX=0.5;exitY=1;exitDx=0;exitDy=0;entryX=0.5;entryY=0;entryDx=0;entryDy=0;" edge="1" parent="1" source="invz6qDNmd_Pc3l4Sm9H-13" target="invz6qDNmd_Pc3l4Sm9H-37">
          <mxGeometry width="160" relative="1" as="geometry">
            <mxPoint x="517" y="120" as="sourcePoint" />
            <mxPoint x="677" y="120" as="targetPoint" />
          </mxGeometry>
        </mxCell>
        <mxCell id="invz6qDNmd_Pc3l4Sm9H-40" value="Назначение ролей" style="ellipse;whiteSpace=wrap;html=1;" vertex="1" parent="1">
          <mxGeometry x="40" y="-20" width="120" height="80" as="geometry" />
        </mxCell>
        <mxCell id="invz6qDNmd_Pc3l4Sm9H-41" value="Блокировка\ Разблокировка пользователей" style="ellipse;whiteSpace=wrap;html=1;" vertex="1" parent="1">
          <mxGeometry x="270" y="-20" width="120" height="80" as="geometry" />
        </mxCell>
        <mxCell id="invz6qDNmd_Pc3l4Sm9H-42" value="&amp;lt;&amp;lt;include&amp;gt;&amp;gt;" style="html=1;verticalAlign=bottom;labelBackgroundColor=none;endArrow=open;endFill=0;dashed=1;rounded=0;exitX=0.5;exitY=0;exitDx=0;exitDy=0;entryX=1;entryY=0.5;entryDx=0;entryDy=0;" edge="1" parent="1" source="invz6qDNmd_Pc3l4Sm9H-17" target="invz6qDNmd_Pc3l4Sm9H-40">
          <mxGeometry width="160" relative="1" as="geometry">
            <mxPoint x="320" y="70" as="sourcePoint" />
            <mxPoint x="480" y="70" as="targetPoint" />
          </mxGeometry>
        </mxCell>
        <mxCell id="invz6qDNmd_Pc3l4Sm9H-43" value="&amp;lt;&amp;lt;include&amp;gt;&amp;gt;" style="html=1;verticalAlign=bottom;labelBackgroundColor=none;endArrow=open;endFill=0;dashed=1;rounded=0;exitX=0.5;exitY=0;exitDx=0;exitDy=0;entryX=0;entryY=0.5;entryDx=0;entryDy=0;" edge="1" parent="1" source="invz6qDNmd_Pc3l4Sm9H-17" target="invz6qDNmd_Pc3l4Sm9H-41">
          <mxGeometry width="160" relative="1" as="geometry">
            <mxPoint x="320" y="70" as="sourcePoint" />
            <mxPoint x="480" y="70" as="targetPoint" />
          </mxGeometry>
        </mxCell>
        <mxCell id="invz6qDNmd_Pc3l4Sm9H-44" value="Изменение доступности контента" style="ellipse;whiteSpace=wrap;html=1;" vertex="1" parent="1">
          <mxGeometry x="320" y="80" width="120" height="80" as="geometry" />
        </mxCell>
        <mxCell id="invz6qDNmd_Pc3l4Sm9H-45" value="Изменение категории" style="ellipse;whiteSpace=wrap;html=1;" vertex="1" parent="1">
          <mxGeometry x="320" y="180" width="120" height="80" as="geometry" />
        </mxCell>
        <mxCell id="invz6qDNmd_Pc3l4Sm9H-46" value="&amp;lt;&amp;lt;include&amp;gt;&amp;gt;" style="html=1;verticalAlign=bottom;labelBackgroundColor=none;endArrow=open;endFill=0;dashed=1;rounded=0;exitX=1;exitY=0.5;exitDx=0;exitDy=0;entryX=0;entryY=0.5;entryDx=0;entryDy=0;" edge="1" parent="1" source="invz6qDNmd_Pc3l4Sm9H-18" target="invz6qDNmd_Pc3l4Sm9H-44">
          <mxGeometry width="160" relative="1" as="geometry">
            <mxPoint x="320" y="190" as="sourcePoint" />
            <mxPoint x="480" y="190" as="targetPoint" />
          </mxGeometry>
        </mxCell>
        <mxCell id="invz6qDNmd_Pc3l4Sm9H-47" value="&amp;lt;&amp;lt;include&amp;gt;&amp;gt;" style="html=1;verticalAlign=bottom;labelBackgroundColor=none;endArrow=open;endFill=0;dashed=1;rounded=0;exitX=1;exitY=0.5;exitDx=0;exitDy=0;entryX=0;entryY=0.5;entryDx=0;entryDy=0;" edge="1" parent="1" source="invz6qDNmd_Pc3l4Sm9H-18" target="invz6qDNmd_Pc3l4Sm9H-45">
          <mxGeometry width="160" relative="1" as="geometry">
            <mxPoint x="320" y="190" as="sourcePoint" />
            <mxPoint x="310" y="200" as="targetPoint" />
          </mxGeometry>
        </mxCell>
        <mxCell id="invz6qDNmd_Pc3l4Sm9H-48" value="Сбор данных" style="ellipse;whiteSpace=wrap;html=1;" vertex="1" parent="1">
          <mxGeometry x="650" y="430" width="120" height="80" as="geometry" />
        </mxCell>
        <mxCell id="invz6qDNmd_Pc3l4Sm9H-49" value="Генерация рекомендаций" style="ellipse;whiteSpace=wrap;html=1;" vertex="1" parent="1">
          <mxGeometry x="650" y="320" width="120" height="80" as="geometry" />
        </mxCell>
        <mxCell id="invz6qDNmd_Pc3l4Sm9H-50" value="Анализ метрик" style="ellipse;whiteSpace=wrap;html=1;" vertex="1" parent="1">
          <mxGeometry x="740" y="230" width="120" height="80" as="geometry" />
        </mxCell>
        <mxCell id="invz6qDNmd_Pc3l4Sm9H-51" value="&amp;lt;&amp;lt;include&amp;gt;&amp;gt;" style="html=1;verticalAlign=bottom;labelBackgroundColor=none;endArrow=open;endFill=0;dashed=1;rounded=0;exitX=0.5;exitY=0.5;exitDx=0;exitDy=0;exitPerimeter=0;entryX=1;entryY=0.5;entryDx=0;entryDy=0;" edge="1" parent="1" source="invz6qDNmd_Pc3l4Sm9H-4" target="invz6qDNmd_Pc3l4Sm9H-50">
          <mxGeometry width="160" relative="1" as="geometry">
            <mxPoint x="493.5" y="410" as="sourcePoint" />
            <mxPoint x="653.5" y="410" as="targetPoint" />
          </mxGeometry>
        </mxCell>
        <mxCell id="invz6qDNmd_Pc3l4Sm9H-52" value="&amp;lt;&amp;lt;include&amp;gt;&amp;gt;" style="html=1;verticalAlign=bottom;labelBackgroundColor=none;endArrow=open;endFill=0;dashed=1;rounded=0;exitX=0.5;exitY=0.5;exitDx=0;exitDy=0;exitPerimeter=0;entryX=1;entryY=0.5;entryDx=0;entryDy=0;" edge="1" parent="1" source="invz6qDNmd_Pc3l4Sm9H-4" target="invz6qDNmd_Pc3l4Sm9H-49">
          <mxGeometry width="160" relative="1" as="geometry">
            <mxPoint x="493.5" y="410" as="sourcePoint" />
            <mxPoint x="773.5" y="410" as="targetPoint" />
          </mxGeometry>
        </mxCell>
        <mxCell id="invz6qDNmd_Pc3l4Sm9H-53" value="&amp;lt;&amp;lt;include&amp;gt;&amp;gt;" style="html=1;verticalAlign=bottom;labelBackgroundColor=none;endArrow=open;endFill=0;dashed=1;rounded=0;exitX=0.5;exitY=0.5;exitDx=0;exitDy=0;exitPerimeter=0;entryX=1;entryY=0.5;entryDx=0;entryDy=0;" edge="1" parent="1" source="invz6qDNmd_Pc3l4Sm9H-4" target="invz6qDNmd_Pc3l4Sm9H-48">
          <mxGeometry width="160" relative="1" as="geometry">
            <mxPoint x="493.5" y="410" as="sourcePoint" />
            <mxPoint x="783.5" y="400" as="targetPoint" />
          </mxGeometry>
        </mxCell>
        <mxCell id="invz6qDNmd_Pc3l4Sm9H-55" value="Активность пользователей" style="ellipse;whiteSpace=wrap;html=1;" vertex="1" parent="1">
          <mxGeometry x="294" y="310" width="120" height="80" as="geometry" />
        </mxCell>
        <mxCell id="invz6qDNmd_Pc3l4Sm9H-57" value="Сортировка" style="ellipse;whiteSpace=wrap;html=1;" vertex="1" parent="1">
          <mxGeometry x="280" y="410" width="120" height="80" as="geometry" />
        </mxCell>
        <mxCell id="invz6qDNmd_Pc3l4Sm9H-58" value="&amp;lt;&amp;lt;include&amp;gt;&amp;gt;" style="html=1;verticalAlign=bottom;labelBackgroundColor=none;endArrow=open;endFill=0;dashed=1;rounded=0;entryX=1;entryY=0.5;entryDx=0;entryDy=0;exitX=0.5;exitY=0;exitDx=0;exitDy=0;" edge="1" parent="1" source="invz6qDNmd_Pc3l4Sm9H-5" target="invz6qDNmd_Pc3l4Sm9H-57">
          <mxGeometry width="160" relative="1" as="geometry">
            <mxPoint x="680" y="590" as="sourcePoint" />
            <mxPoint x="550" y="470" as="targetPoint" />
          </mxGeometry>
        </mxCell>
        <mxCell id="invz6qDNmd_Pc3l4Sm9H-59" value="&amp;lt;&amp;lt;include&amp;gt;&amp;gt;" style="html=1;verticalAlign=bottom;labelBackgroundColor=none;endArrow=open;endFill=0;dashed=1;rounded=0;exitX=0.5;exitY=0;exitDx=0;exitDy=0;entryX=1;entryY=0.5;entryDx=0;entryDy=0;" edge="1" parent="1" source="invz6qDNmd_Pc3l4Sm9H-50" target="invz6qDNmd_Pc3l4Sm9H-13">
          <mxGeometry width="160" relative="1" as="geometry">
            <mxPoint x="390" y="360" as="sourcePoint" />
            <mxPoint x="550" y="360" as="targetPoint" />
          </mxGeometry>
        </mxCell>
        <mxCell id="invz6qDNmd_Pc3l4Sm9H-60" value="&amp;lt;&amp;lt;include&amp;gt;&amp;gt;" style="html=1;verticalAlign=bottom;labelBackgroundColor=none;endArrow=open;endFill=0;dashed=1;rounded=0;exitX=0;exitY=0.5;exitDx=0;exitDy=0;entryX=1;entryY=0.5;entryDx=0;entryDy=0;" edge="1" parent="1" source="invz6qDNmd_Pc3l4Sm9H-50" target="invz6qDNmd_Pc3l4Sm9H-19">
          <mxGeometry width="160" relative="1" as="geometry">
            <mxPoint x="390" y="360" as="sourcePoint" />
            <mxPoint x="550" y="360" as="targetPoint" />
          </mxGeometry>
        </mxCell>
      </root>
    </mxGraphModel>
  </diagram>
</mxfile>
